<mxfile host="app.diagrams.net" modified="2023-01-27T08:52:04.137Z" agent="5.0 (Macintosh; Intel Mac OS X 10_15_7) AppleWebKit/537.36 (KHTML, like Gecko) Chrome/106.0.0.0 Safari/537.36" etag="pc-vQuHv4rDKlALnEtPu" version="20.8.13" type="github">
  <diagram name="第 1 页" id="XJTtHOuovI3ZgrV7h-nL">
    <mxGraphModel dx="1381" dy="766" grid="1" gridSize="10" guides="1" tooltips="1" connect="1" arrows="1" fold="1" page="1" pageScale="1" pageWidth="827" pageHeight="1169" math="0" shadow="0">
      <root>
        <mxCell id="0" />
        <mxCell id="1" parent="0" />
        <mxCell id="l3ivpGtBPZM45VVmM8WY-1" value="" style="endArrow=none;html=1;rounded=0;" edge="1" parent="1">
          <mxGeometry width="50" height="50" relative="1" as="geometry">
            <mxPoint x="120" y="240" as="sourcePoint" />
            <mxPoint x="720" y="240" as="targetPoint" />
          </mxGeometry>
        </mxCell>
        <mxCell id="l3ivpGtBPZM45VVmM8WY-2" value="" style="endArrow=none;html=1;rounded=0;" edge="1" parent="1">
          <mxGeometry width="50" height="50" relative="1" as="geometry">
            <mxPoint x="120" y="360" as="sourcePoint" />
            <mxPoint x="720" y="360" as="targetPoint" />
          </mxGeometry>
        </mxCell>
        <mxCell id="l3ivpGtBPZM45VVmM8WY-3" value="" style="endArrow=none;html=1;rounded=0;" edge="1" parent="1">
          <mxGeometry width="50" height="50" relative="1" as="geometry">
            <mxPoint x="120" y="480" as="sourcePoint" />
            <mxPoint x="720" y="480" as="targetPoint" />
          </mxGeometry>
        </mxCell>
        <mxCell id="l3ivpGtBPZM45VVmM8WY-7" style="edgeStyle=orthogonalEdgeStyle;rounded=0;orthogonalLoop=1;jettySize=auto;html=1;" edge="1" parent="1" source="l3ivpGtBPZM45VVmM8WY-4">
          <mxGeometry relative="1" as="geometry">
            <mxPoint x="170" y="240" as="targetPoint" />
          </mxGeometry>
        </mxCell>
        <mxCell id="l3ivpGtBPZM45VVmM8WY-4" value="feat-1" style="text;html=1;strokeColor=none;fillColor=none;align=center;verticalAlign=middle;whiteSpace=wrap;rounded=0;" vertex="1" parent="1">
          <mxGeometry x="140" y="110" width="60" height="30" as="geometry" />
        </mxCell>
        <mxCell id="l3ivpGtBPZM45VVmM8WY-8" style="edgeStyle=orthogonalEdgeStyle;rounded=0;orthogonalLoop=1;jettySize=auto;html=1;" edge="1" parent="1" source="l3ivpGtBPZM45VVmM8WY-5">
          <mxGeometry relative="1" as="geometry">
            <mxPoint x="330" y="360" as="targetPoint" />
          </mxGeometry>
        </mxCell>
        <mxCell id="l3ivpGtBPZM45VVmM8WY-9" style="edgeStyle=orthogonalEdgeStyle;rounded=0;orthogonalLoop=1;jettySize=auto;html=1;exitX=0.25;exitY=1;exitDx=0;exitDy=0;" edge="1" parent="1" source="l3ivpGtBPZM45VVmM8WY-5">
          <mxGeometry relative="1" as="geometry">
            <mxPoint x="315" y="240" as="targetPoint" />
            <Array as="points">
              <mxPoint x="315" y="180" />
              <mxPoint x="315" y="180" />
            </Array>
          </mxGeometry>
        </mxCell>
        <mxCell id="l3ivpGtBPZM45VVmM8WY-5" value="feat-2" style="text;html=1;strokeColor=none;fillColor=none;align=center;verticalAlign=middle;whiteSpace=wrap;rounded=0;" vertex="1" parent="1">
          <mxGeometry x="300" y="110" width="60" height="30" as="geometry" />
        </mxCell>
        <mxCell id="l3ivpGtBPZM45VVmM8WY-10" value="" style="endArrow=classic;html=1;rounded=0;" edge="1" parent="1">
          <mxGeometry width="50" height="50" relative="1" as="geometry">
            <mxPoint x="360" y="360" as="sourcePoint" />
            <mxPoint x="360" y="480" as="targetPoint" />
          </mxGeometry>
        </mxCell>
        <mxCell id="l3ivpGtBPZM45VVmM8WY-11" value="dev" style="text;html=1;strokeColor=none;fillColor=none;align=center;verticalAlign=middle;whiteSpace=wrap;rounded=0;" vertex="1" parent="1">
          <mxGeometry x="50" y="220" width="60" height="30" as="geometry" />
        </mxCell>
        <mxCell id="l3ivpGtBPZM45VVmM8WY-12" value="test" style="text;html=1;strokeColor=none;fillColor=none;align=center;verticalAlign=middle;whiteSpace=wrap;rounded=0;" vertex="1" parent="1">
          <mxGeometry x="50" y="340" width="60" height="30" as="geometry" />
        </mxCell>
        <mxCell id="l3ivpGtBPZM45VVmM8WY-13" value="master" style="text;html=1;strokeColor=none;fillColor=none;align=center;verticalAlign=middle;whiteSpace=wrap;rounded=0;" vertex="1" parent="1">
          <mxGeometry x="50" y="460" width="60" height="30" as="geometry" />
        </mxCell>
        <mxCell id="l3ivpGtBPZM45VVmM8WY-14" value="" style="endArrow=classic;html=1;rounded=0;" edge="1" parent="1">
          <mxGeometry width="50" height="50" relative="1" as="geometry">
            <mxPoint x="160" y="360" as="sourcePoint" />
            <mxPoint x="160" y="140" as="targetPoint" />
          </mxGeometry>
        </mxCell>
        <mxCell id="l3ivpGtBPZM45VVmM8WY-18" style="edgeStyle=orthogonalEdgeStyle;rounded=0;orthogonalLoop=1;jettySize=auto;html=1;" edge="1" parent="1" source="l3ivpGtBPZM45VVmM8WY-15">
          <mxGeometry relative="1" as="geometry">
            <mxPoint x="470" y="360" as="targetPoint" />
          </mxGeometry>
        </mxCell>
        <mxCell id="l3ivpGtBPZM45VVmM8WY-15" value="fix-1" style="text;html=1;strokeColor=none;fillColor=none;align=center;verticalAlign=middle;whiteSpace=wrap;rounded=0;" vertex="1" parent="1">
          <mxGeometry x="440" y="110" width="60" height="30" as="geometry" />
        </mxCell>
        <mxCell id="l3ivpGtBPZM45VVmM8WY-16" value="" style="endArrow=classic;html=1;rounded=0;entryX=0.25;entryY=1;entryDx=0;entryDy=0;" edge="1" parent="1" target="l3ivpGtBPZM45VVmM8WY-15">
          <mxGeometry width="50" height="50" relative="1" as="geometry">
            <mxPoint x="455" y="480" as="sourcePoint" />
            <mxPoint x="500" y="430" as="targetPoint" />
          </mxGeometry>
        </mxCell>
        <mxCell id="l3ivpGtBPZM45VVmM8WY-19" value="" style="endArrow=classic;html=1;rounded=0;exitX=0.75;exitY=1;exitDx=0;exitDy=0;" edge="1" parent="1" source="l3ivpGtBPZM45VVmM8WY-15">
          <mxGeometry width="50" height="50" relative="1" as="geometry">
            <mxPoint x="520" y="410" as="sourcePoint" />
            <mxPoint x="485" y="480" as="targetPoint" />
          </mxGeometry>
        </mxCell>
        <mxCell id="l3ivpGtBPZM45VVmM8WY-20" value="" style="endArrow=classic;html=1;rounded=0;exitX=1;exitY=1;exitDx=0;exitDy=0;" edge="1" parent="1" source="l3ivpGtBPZM45VVmM8WY-15">
          <mxGeometry width="50" height="50" relative="1" as="geometry">
            <mxPoint x="520" y="170" as="sourcePoint" />
            <mxPoint x="500" y="240" as="targetPoint" />
          </mxGeometry>
        </mxCell>
        <mxCell id="l3ivpGtBPZM45VVmM8WY-24" style="edgeStyle=orthogonalEdgeStyle;rounded=0;orthogonalLoop=1;jettySize=auto;html=1;exitX=0.25;exitY=1;exitDx=0;exitDy=0;" edge="1" parent="1">
          <mxGeometry relative="1" as="geometry">
            <mxPoint x="615" y="480" as="targetPoint" />
            <mxPoint x="615" y="140" as="sourcePoint" />
          </mxGeometry>
        </mxCell>
        <mxCell id="l3ivpGtBPZM45VVmM8WY-25" style="edgeStyle=orthogonalEdgeStyle;rounded=0;orthogonalLoop=1;jettySize=auto;html=1;" edge="1" parent="1">
          <mxGeometry relative="1" as="geometry">
            <mxPoint x="630" y="360" as="targetPoint" />
            <mxPoint x="630" y="140" as="sourcePoint" />
          </mxGeometry>
        </mxCell>
        <mxCell id="l3ivpGtBPZM45VVmM8WY-26" style="edgeStyle=orthogonalEdgeStyle;rounded=0;orthogonalLoop=1;jettySize=auto;html=1;exitX=0.75;exitY=1;exitDx=0;exitDy=0;" edge="1" parent="1">
          <mxGeometry relative="1" as="geometry">
            <mxPoint x="645" y="240" as="targetPoint" />
            <mxPoint x="645" y="140" as="sourcePoint" />
          </mxGeometry>
        </mxCell>
        <mxCell id="l3ivpGtBPZM45VVmM8WY-22" value="" style="endArrow=classic;html=1;rounded=0;entryX=0;entryY=1;entryDx=0;entryDy=0;" edge="1" parent="1" target="l3ivpGtBPZM45VVmM8WY-5">
          <mxGeometry width="50" height="50" relative="1" as="geometry">
            <mxPoint x="300" y="360" as="sourcePoint" />
            <mxPoint x="350" y="430" as="targetPoint" />
          </mxGeometry>
        </mxCell>
        <mxCell id="l3ivpGtBPZM45VVmM8WY-23" value="" style="endArrow=classic;html=1;rounded=0;entryX=0;entryY=1;entryDx=0;entryDy=0;" edge="1" parent="1">
          <mxGeometry width="50" height="50" relative="1" as="geometry">
            <mxPoint x="600" y="480" as="sourcePoint" />
            <mxPoint x="600" y="140" as="targetPoint" />
          </mxGeometry>
        </mxCell>
        <mxCell id="l3ivpGtBPZM45VVmM8WY-27" value="fix-2" style="text;html=1;strokeColor=none;fillColor=none;align=center;verticalAlign=middle;whiteSpace=wrap;rounded=0;" vertex="1" parent="1">
          <mxGeometry x="590" y="110" width="60" height="30" as="geometry" />
        </mxCell>
      </root>
    </mxGraphModel>
  </diagram>
</mxfile>
